HIERARCHY
ROOT Hips
{
	OFFSET -3.958830 18.904000 13.208200
	CHANNELS 6 Xposition Yposition Zposition Zrotation Yrotation Xrotation 
	JOINT LHipJoint
	{
		OFFSET 0.000000 0.000000 0.000000
		CHANNELS 3 Zrotation Yrotation Xrotation
		JOINT LeftUpLeg
		{
			OFFSET 1.800000 -1.400000 0.085000
			CHANNELS 3 Zrotation Yrotation Xrotation
			JOINT LeftLeg
			{
				OFFSET 2.215000 -6.000000 0.000000
				CHANNELS 3 Zrotation Yrotation Xrotation
				JOINT LeftFoot
				{
					OFFSET 2.500000 -6.900000 0.000000
					CHANNELS 3 Zrotation Yrotation Xrotation
					JOINT LeftToeBase
					{
						OFFSET 0.200000 -0.500000 1.950000
						CHANNELS 3 Zrotation Yrotation Xrotation
						End Site
						{
							OFFSET 0.000000 0.000000 0.000000
						}
					}
				}
			}
		}
	}
	JOINT RHipJoint
	{
		OFFSET 0.000000 0.000000 0.000000
		CHANNELS 3 Zrotation Yrotation Xrotation
		JOINT RightUpLeg
		{
			OFFSET -1.800000 -1.400000 0.085000
			CHANNELS 3 Zrotation Yrotation Xrotation
			JOINT RightLeg
			{
				OFFSET -2.215000 -6.000000 0.000000
				CHANNELS 3 Zrotation Yrotation Xrotation
				JOINT RightFoot
				{
					OFFSET -2.500000 -6.900000 0.000000
					CHANNELS 3 Zrotation Yrotation Xrotation
					JOINT RightToeBase
					{
						OFFSET -0.200000 -0.500000 1.950000
						CHANNELS 3 Zrotation Yrotation Xrotation
						End Site
						{
							OFFSET 0.000000 0.000000 0.000000
						}
					}
				}
			}
		}
	}
	JOINT LowerBack
	{
		OFFSET 0.000000 0.000000 0.000000
		CHANNELS 3 Zrotation Yrotation Xrotation
		JOINT Spine
		{
			OFFSET -0.087000 1.940000 -0.288900
			CHANNELS 3 Zrotation Yrotation Xrotation
			JOINT Spine1
			{
				OFFSET 0.000000 1.950000 0.060000
				CHANNELS 3 Zrotation Yrotation Xrotation
				JOINT Neck
				{
					OFFSET 0.000000 0.000000 0.000000
					CHANNELS 3 Zrotation Yrotation Xrotation
					JOINT Neck1
					{
						OFFSET 0.000000 1.600000 0.340000
						CHANNELS 3 Zrotation Yrotation Xrotation
						JOINT Head
						{
							OFFSET 0.000000 1.667000 -0.240000
							CHANNELS 3 Zrotation Yrotation Xrotation
							End Site
							{
								OFFSET 0.000000 0.000000 0.000000
							}
						}
					}
				}
				JOINT LeftShoulder
				{
					OFFSET 0.000000 0.000000 0.000000
					CHANNELS 3 Zrotation Yrotation Xrotation
					JOINT LeftArm
					{
						OFFSET 2.700000 1.550000 -0.730000
						CHANNELS 3 Zrotation Yrotation Xrotation
						JOINT LeftForeArm
						{
							OFFSET 5.450000 0.000000 0.000000
							CHANNELS 3 Zrotation Yrotation Xrotation
							JOINT LeftHand
							{
								OFFSET 3.450000 0.000000 0.000000
								CHANNELS 3 Zrotation Yrotation Xrotation
								JOINT LeftHandIndex1
								{
									OFFSET 0.750000 0.000000 0.000000
									CHANNELS 3 Zrotation Yrotation Xrotation
									End Site
									{
										OFFSET 0.000000 0.000000 0.000000
									}
								}
							}
						}
					}
				}
				JOINT RightShoulder
				{
					OFFSET 0.000000 0.000000 0.000000
					CHANNELS 3 Zrotation Yrotation Xrotation
					JOINT RightArm
					{
						OFFSET -2.700000 1.550000 -0.730000
						CHANNELS 3 Zrotation Yrotation Xrotation
						JOINT RightForeArm
						{
							OFFSET -5.450000 0.000000 0.000000
							CHANNELS 3 Zrotation Yrotation Xrotation
							JOINT RightHand
							{
								OFFSET -3.450000 0.000000 0.000000
								CHANNELS 3 Zrotation Yrotation Xrotation
								JOINT RightHandIndex1
								{
									OFFSET -0.750000 0.000000 0.000000
									CHANNELS 3 Zrotation Yrotation Xrotation
									End Site
									{
										OFFSET 0.000000 0.000000 0.000000
									}
								}
							}
						}
					}
				}
			}
		}
	}
}
MOTION
Frames: 14
Frame Time: 0.016667
-1.510030 16.395360 -1.678780 -1.789100 1.446047 6.003852 -15.137872 12.745577 2.311402 9.376457 -0.996190 -15.408137 -0.059939 3.384238 7.016017 -0.400854 3.030396 3.552873 0.238430 0.295800 0.047130 18.330260 -10.895240 3.331362 -6.363959 1.008777 -8.067494 6.452523 -2.513849 -3.808559 -0.131544 -3.789662 3.111513 0.368790 0.370090 0.143670 -3.747973 -0.096080 -7.077094 9.237430 1.898878 5.730093 4.611718 0.208957 10.879981 6.368457 -9.511761 -11.264078 -15.177108 10.467749 21.649651 -4.904170 7.241820 -4.648240 -10.255330 -6.258889 7.105137 -70.574361 3.553379 -8.810790 -16.660155 -20.258070 -0.607972 -4.038814 3.174652 -0.162870 0.361790 -0.206460 0.157380 -0.523658 18.912948 2.767881 -11.860405 26.381301 -11.822030 -95.192010 12.587787 -18.604966 2.284427 -2.136285 -0.115360 0.173480 0.002250 0.016970 
-1.507600 16.387190 -1.680720 -1.809524 1.865078 6.078643 -15.141242 12.789387 2.338099 9.587490 -1.013990 -15.753482 -0.109074 3.414132 7.147041 -0.410756 3.043482 3.543053 0.231230 0.283670 0.054950 18.314787 -10.889178 3.307996 -6.566487 1.050923 -8.267867 6.830545 -2.610855 -3.210403 -0.121068 -3.770794 3.114077 0.363130 0.366650 0.146140 -3.727737 -0.194000 -7.097341 9.606072 1.652422 5.919623 4.019023 0.088544 10.484495 6.657801 -9.400921 -11.138332 -15.023429 10.414960 21.550993 -5.318820 7.537970 -4.708000 -11.555334 -6.432946 6.932428 -69.438422 3.704979 -8.530541 -15.484568 -19.255355 -0.741526 -4.061776 3.144569 -0.156880 0.365760 -0.205210 0.147860 0.109836 18.898939 2.806706 -12.575162 25.672243 -11.881303 -94.236451 12.938956 -18.413574 2.280708 -2.123577 -0.120650 0.171850 0.007660 0.007150 
-1.503660 16.371690 -1.687360 -1.835259 2.269649 6.442218 -15.133333 12.814954 2.394095 10.082885 -1.074723 -16.368599 -0.362726 3.454117 7.041878 -0.422768 3.061343 3.530831 0.224610 0.274000 0.069860 18.303539 -10.879370 3.269544 -7.131607 1.229478 -9.048167 7.820212 -2.785079 -2.084014 -0.097533 -3.733691 3.116278 0.362550 0.363300 0.144210 -3.731984 -0.275470 -7.128582 10.296072 1.347149 6.072331 2.662944 0.070867 9.733104 7.158168 -8.953642 -10.851149 -14.256251 10.354179 21.122743 -5.659300 8.131230 -4.716590 -14.001852 -6.696070 6.643208 -67.159907 4.132638 -8.091359 -12.674846 -17.714632 -0.959468 -4.093295 3.102155 -0.154250 0.373180 -0.206110 0.136880 1.352695 18.601397 2.835580 -13.692394 24.225577 -11.830023 -92.566296 13.533344 -18.039785 2.280230 -2.111634 -0.131250 0.170460 0.008280 -0.006510 
-1.503040 16.355970 -1.686570 -1.598396 2.309082 7.048253 -15.117257 12.772839 2.463936 10.903264 -1.140484 -16.976966 -1.410531 3.650482 6.894248 -0.454655 3.163947 3.491328 0.225700 0.269880 0.082630 18.301887 -10.851467 3.228424 -8.477446 1.543419 -10.247603 9.431674 -3.056926 -0.785800 -0.075029 -3.748251 3.098454 0.377840 0.375410 0.141480 -3.756954 -0.276915 -7.145688 10.608811 1.266112 5.997374 0.819574 0.372816 8.571658 7.498566 -8.076246 -10.118373 -12.671085 9.962232 20.479878 -5.722190 8.437580 -4.959520 -17.602629 -6.604368 6.119365 -62.682783 5.062832 -7.371400 -10.186990 -15.645530 -1.053981 -4.132823 3.058109 -0.145210 0.391470 -0.217060 0.131690 3.948020 17.575636 2.577286 -15.111544 22.646039 -11.370257 -90.779843 14.731070 -17.749693 2.255039 -2.083316 -0.156200 0.185500 0.014260 -0.025060 
-1.501830 16.346590 -1.676320 -1.322267 2.531301 7.324461 -15.096307 12.775055 2.509310 11.045827 -1.214707 -17.012845 -1.684103 3.661123 6.640539 -0.466407 3.188419 3.482385 0.228650 0.272040 0.096520 18.306827 -10.906407 3.149857 -9.297411 1.636773 -11.096371 9.449322 -3.259033 0.637053 -0.050331 -3.708731 3.097887 0.383620 0.374520 0.150040 -3.799769 -0.234715 -7.118271 10.865091 1.063182 5.831081 -0.259487 0.352623 7.973508 7.570622 -7.517509 -9.639726 -11.667658 9.776663 20.167242 -6.070440 8.717170 -5.157550 -19.327320 -6.303408 5.842529 -60.283524 5.724602 -7.115020 -9.477142 -14.786156 -1.050047 -4.151910 3.049813 -0.146430 0.403490 -0.215930 0.125770 5.335749 16.611118 2.309665 -14.478410 22.126246 -10.726672 -90.967210 16.314124 -18.878011 2.229870 -2.070411 -0.158520 0.182600 0.014330 -0.034180 
-1.506750 16.337850 -1.660550 -1.223276 3.021153 7.349217 -15.083993 12.806856 2.539559 11.197129 -1.241546 -16.824471 -1.630448 3.615418 6.312998 -0.473948 3.200888 3.479314 0.233170 0.274880 0.106200 18.306545 -10.968478 3.064438 -9.630958 1.641344 -11.730175 9.482601 -3.515300 2.298966 -0.030354 -3.671545 3.097195 0.388390 0.371900 0.153820 -3.824368 -0.232028 -7.077111 11.019343 0.806201 5.705031 -0.460745 0.144114 7.524337 7.372379 -7.260172 -9.226782 -11.219220 9.841973 20.042396 -6.169240 8.868670 -5.328020 -19.795727 -5.547048 5.610662 -59.399386 6.286062 -7.290606 -10.118852 -15.034812 -1.008900 -4.154685 3.049690 -0.143510 0.406180 -0.213760 0.122850 6.090821 15.447935 1.961872 -13.318516 22.041392 -10.001489 -91.764505 18.339531 -20.724496 2.202363 -2.052026 -0.160600 0.181580 0.013500 -0.039870 
-1.514270 16.331220 -1.641650 -1.188861 3.531172 7.250226 -15.072648 12.859401 2.549051 11.281857 -1.244030 -16.698176 -1.469451 3.610034 6.407958 -0.483024 3.210469 3.476384 0.231390 0.270510 0.110330 18.305597 -11.036390 2.986589 -9.807170 1.639779 -12.366685 9.532123 -3.789708 4.047706 -0.008899 -3.639080 3.098050 0.388750 0.369850 0.149980 -3.847513 -0.242643 -7.025702 11.117959 0.505071 5.617735 -0.196882 -0.142905 7.225314 6.983092 -7.174024 -8.911718 -11.082439 10.049436 19.966941 -6.203600 8.977060 -5.452360 -19.311512 -4.533127 5.494487 -59.574078 6.960064 -7.979545 -12.174496 -16.467089 -0.887323 -4.145336 3.053764 -0.138090 0.404940 -0.214980 0.118490 6.324388 14.167461 1.578374 -11.763797 22.219187 -9.202126 -92.923371 20.831677 -23.292592 2.171949 -2.021908 -0.166990 0.184210 0.015600 -0.045780 
-1.525530 16.330220 -1.618090 -1.327858 4.038443 6.779042 -15.063357 12.968016 2.540087 11.457724 -1.165243 -16.482148 -1.045990 3.629061 6.921645 -0.486661 3.219088 3.464809 0.231510 0.263920 0.122000 18.295231 -11.117575 2.919081 -9.724636 1.615167 -12.729198 9.612380 -4.135264 6.061869 -0.002828 -3.622312 3.093347 0.378780 0.349030 0.148510 -3.855935 -0.306921 -6.994606 11.412326 0.176286 5.898275 0.040439 -0.417721 6.928985 6.738726 -7.236595 -8.659356 -11.220030 10.204467 20.350211 -6.468550 9.056810 -5.890590 -18.957784 -3.548571 5.383451 -59.685515 7.717449 -8.728333 -14.258557 -17.972589 -0.712086 -4.119615 3.054211 -0.116650 0.387680 -0.199990 0.109100 6.408063 13.109777 1.208623 -10.326965 22.633573 -8.536473 -93.674078 23.130689 -25.605761 2.150832 -1.975412 -0.165850 0.181600 0.017050 -0.055500 
-1.532700 16.333230 -1.594310 -1.657075 4.535647 5.984543 -15.057814 13.141016 2.519648 11.718793 -1.023821 -16.475986 -0.498124 3.734265 8.219742 -0.475674 3.228723 3.442609 0.235610 0.260460 0.139220 18.269475 -11.208257 2.860783 -9.595287 1.627891 -13.006860 9.766323 -4.581850 8.577181 -0.010392 -3.631716 3.077333 0.359400 0.307890 0.143640 -3.841097 -0.444176 -6.991999 11.966673 -0.088301 6.624394 0.370608 -0.546638 6.513654 6.669590 -7.451819 -8.511200 -11.645268 10.060860 21.197789 -6.858580 8.861250 -6.486970 -18.623252 -2.547033 5.154424 -60.074351 8.173781 -9.316491 -16.057218 -19.025620 -0.515848 -4.074355 3.048920 -0.084300 0.349600 -0.169070 0.100010 6.152102 12.244836 0.996368 -9.276106 22.483133 -8.117963 -93.476506 25.307961 -27.389983 2.148404 -1.920497 -0.154780 0.172610 0.009590 -0.062860 
-1.543310 16.330930 -1.574470 -1.996573 4.756872 5.018670 -15.049296 13.326046 2.495114 12.014473 -0.852367 -16.479132 0.062416 3.881539 9.819410 -0.457398 3.263203 3.410296 0.237080 0.260420 0.151820 18.243611 -11.313640 2.802411 -9.392570 1.740574 -13.493645 9.715277 -5.082576 11.714799 -0.018948 -3.678631 3.047610 0.342000 0.273070 0.137300 -3.827783 -0.562939 -6.994881 12.447311 -0.465659 7.472661 0.345159 -0.724778 6.260360 6.811855 -7.514650 -8.373069 -11.807337 10.292571 22.339036 -7.072360 9.011050 -6.835060 -18.562679 -1.846962 5.011058 -60.362386 8.677601 -9.844703 -16.546328 -19.774457 -0.430144 -4.036233 3.037058 -0.059830 0.317470 -0.140820 0.092440 5.771014 11.587611 0.699188 -8.293908 23.138856 -7.788678 -91.712082 27.132527 -28.147238 2.152179 -1.863354 -0.143350 0.165100 0.002060 -0.067010 
-1.544610 16.330590 -1.556580 -2.307669 5.028710 3.911054 -15.050850 13.540869 2.473580 12.205872 -0.696296 -16.597905 0.728740 4.039383 11.779466 -0.450669 3.329424 3.363197 0.244500 0.258510 0.178570 18.204261 -11.379026 2.766479 -9.411121 1.953399 -13.977528 9.741547 -5.625308 14.902571 -0.043159 -3.790245 2.992359 0.326230 0.228970 0.133360 -3.785058 -0.782899 -7.037631 13.070850 -0.977213 8.609184 0.156731 -0.986582 5.901176 7.172233 -7.591932 -8.268640 -12.016607 10.404663 23.717510 -7.716000 9.213310 -7.360340 -19.297187 -1.689252 4.808417 -60.128954 8.874570 -9.849230 -15.924471 -19.001519 -0.548895 -4.006647 3.005142 -0.021870 0.283210 -0.107340 0.081280 5.741334 11.517851 0.495490 -8.104434 23.688908 -7.757334 -89.344235 28.781062 -28.276105 2.150618 -1.799191 -0.136850 0.156900 -0.006700 -0.082180 
-1.540690 16.322320 -1.543660 -2.610203 5.690179 2.816011 -15.041229 13.710980 2.453650 12.378008 -0.605177 -16.884737 1.446246 4.138212 13.601847 -0.428314 3.389333 3.319731 0.248440 0.258170 0.192650 18.179858 -11.399353 2.768379 -10.047271 2.381047 -14.848143 10.658216 -6.543394 18.711315 -0.094287 -4.090115 2.860617 0.308550 0.190340 0.128350 -3.791395 -0.990194 -7.109109 14.070058 -1.616064 9.739569 -0.548198 -1.246881 5.487294 7.570908 -7.784864 -8.219072 -12.435297 10.336443 25.067172 -8.020970 9.008230 -7.644270 -20.120415 -1.675780 4.533485 -60.233100 8.665586 -9.600280 -13.031922 -17.799694 -0.807985 -3.981277 2.969348 0.003770 0.246790 -0.077410 0.074000 5.652636 11.599930 0.458335 -8.094261 23.731528 -7.882328 -86.891066 29.935095 -27.908933 2.162717 -1.750643 -0.123060 0.147350 -0.015060 -0.085060 
-1.538390 16.306650 -1.535350 -2.746971 6.596334 1.842678 -15.039785 13.798224 2.432484 12.681071 -0.555232 -17.255310 1.642620 4.345015 15.289452 -0.426673 3.511364 3.255081 0.249110 0.250160 0.209130 18.162975 -11.336080 2.823886 -11.490610 2.965061 -15.934794 12.622695 -7.911539 22.450853 -0.177560 -4.612988 2.646262 0.299050 0.159930 0.121230 -3.800230 -1.183638 -7.207909 14.892226 -2.234973 10.692756 -1.434185 -1.528428 5.176071 8.028082 -7.737586 -8.139421 -12.429840 10.125711 26.281384 -8.543490 8.831120 -7.922380 -20.930037 -1.890446 4.158662 -59.570784 8.019685 -8.639355 -10.330562 -15.011371 -0.998500 -3.984605 2.923935 0.032050 0.223950 -0.059830 0.060840 5.438672 11.645064 0.520703 -7.967338 23.541429 -8.016418 -85.191373 30.732388 -27.692105 2.158816 -1.713227 -0.125190 0.145140 -0.014560 -0.099690 
-1.542240 16.281930 -1.529880 -2.536534 7.739111 1.217996 -15.047304 13.787685 2.403551 12.854324 -0.592350 -17.819299 1.524936 4.600609 16.876877 -0.428920 3.654011 3.188338 0.252450 0.246950 0.222490 18.157479 -11.221523 2.925732 -13.577182 3.498439 -17.132832 15.065369 -9.458602 25.324688 -0.275258 -5.229623 2.397164 0.299850 0.148650 0.122410 -3.811770 -1.296599 -7.302223 15.100900 -2.796039 11.239438 -2.355633 -1.884582 4.924047 8.359575 -7.471828 -7.898452 -11.965222 9.900983 27.002129 -8.863880 8.695040 -7.967280 -21.862818 -2.114238 3.805232 -58.290805 7.446664 -7.444168 -7.689324 -11.724344 -1.054090 -4.012792 2.895076 0.042260 0.220720 -0.055480 0.052460 5.631594 11.481547 0.434594 -7.795910 23.732200 -8.017986 -84.051496 31.072029 -27.396266 2.153131 -1.700735 -0.128060 0.143550 -0.012420 -0.110200 
